<svg width="19" height="27" xmlns="http://www.w3.org/2000/svg"><path d="M18.21 21.412V26H.897c.188-1.734.75-3.378 1.688-4.93.937-1.553 2.789-3.613 5.555-6.18 2.226-2.074 3.591-3.48 4.095-4.218.68-1.02 1.02-2.027 1.02-3.024 0-1.101-.296-1.948-.888-2.54-.592-.591-1.409-.887-2.452-.887-1.031 0-1.851.31-2.46.931-.61.621-.962 1.653-1.056 3.094l-4.921-.492c.293-2.719 1.212-4.67 2.76-5.854C5.782.717 7.716.125 10.036.125c2.543 0 4.541.686 5.994 2.057 1.453 1.37 2.18 3.076 2.18 5.115 0 1.16-.208 2.265-.624 3.313-.416 1.05-1.075 2.148-1.978 3.296-.597.762-1.675 1.858-3.234 3.287-1.559 1.43-2.546 2.38-2.962 2.848a8.527 8.527 0 0 0-1.01 1.371h9.808Z" fill="#888" fill-rule="evenodd"/></svg>