<svg width="18" height="27" xmlns="http://www.w3.org/2000/svg"><path d="m.354 19.162 4.78-.58c.153 1.219.563 2.15 1.231 2.795.668.644 1.477.967 2.426.967 1.02 0 1.878-.387 2.575-1.16.697-.774 1.046-1.817 1.046-3.13 0-1.242-.334-2.226-1.002-2.952-.668-.727-1.482-1.09-2.443-1.09-.633 0-1.389.123-2.268.369l.545-4.026c1.336.036 2.356-.254 3.059-.87.703-.615 1.054-1.432 1.054-2.452 0-.867-.257-1.558-.773-2.074-.516-.516-1.201-.773-2.057-.773-.843 0-1.564.293-2.162.878-.597.586-.96 1.442-1.09 2.567L.723 6.857c.316-1.558.794-2.803 1.432-3.735.639-.932 1.53-1.664 2.672-2.197C5.97.392 7.25.125 8.668.125c2.426 0 4.371.773 5.836 2.32 1.207 1.266 1.81 2.696 1.81 4.29 0 2.261-1.236 4.066-3.709 5.413 1.477.317 2.658 1.026 3.542 2.127.885 1.102 1.328 2.432 1.328 3.99 0 2.262-.827 4.19-2.479 5.784-1.652 1.594-3.709 2.39-6.17 2.39-2.332 0-4.265-.67-5.8-2.012C1.49 23.085.6 21.33.353 19.162Z" fill="#888" fill-rule="evenodd"/></svg>