<?xml version="1.0" encoding="utf-8"?>
<!-- Generator: Adobe Illustrator 16.0.0, SVG Export Plug-In . SVG Version: 6.00 Build 0)  -->
<!DOCTYPE svg PUBLIC "-//W3C//DTD SVG 1.1//EN" "http://www.w3.org/Graphics/SVG/1.1/DTD/svg11.dtd">
<svg version="1.1"
	 id="Layer_1" xmlns:rdf="http://www.w3.org/1999/02/22-rdf-syntax-ns#" xmlns:cc="http://creativecommons.org/ns#" xmlns:dc="http://purl.org/dc/elements/1.1/"
	 xmlns="http://www.w3.org/2000/svg" xmlns:xlink="http://www.w3.org/1999/xlink" x="0px" y="0px" width="48.018px"
	 height="30.692px" viewBox="-0.818 0.804 48.018 30.692" enable-background="new -0.818 0.804 48.018 30.692" xml:space="preserve"
	>
<g id="path14_2_" opacity="0.1">
	<path d="M23.101,31.496c-0.759,0-1.511-0.287-2.085-0.842c-0.967-0.935-1.195-2.398-0.557-3.582l2.399-4.447H2.182
		c-1.657,0-3-1.343-3-3v-7.042c0-1.657,1.343-3,3-3h20.651L20.466,5.24c-0.645-1.183-0.422-2.651,0.545-3.589
		c0.575-0.558,1.329-0.847,2.09-0.847c0.519,0,1.042,0.135,1.514,0.411l21.1,12.346c0.92,0.538,1.485,1.524,1.485,2.589
		s-0.565,2.051-1.485,2.589l-21.1,12.346C24.144,31.361,23.62,31.496,23.101,31.496z"/>
</g>
<g id="path14_1_">
	<path fill="#FFFFFF" d="M23.101,30.496c-0.506,0-1.007-0.191-1.39-0.562c-0.645-0.623-0.796-1.599-0.371-2.388l3.194-5.922H2.182
		c-1.104,0-2-0.896-2-2v-7.042c0-1.104,0.896-2,2-2h22.334l-3.173-5.822c-0.43-0.789-0.281-1.767,0.364-2.393
		c0.383-0.372,0.886-0.564,1.393-0.564c0.347,0,0.695,0.09,1.01,0.274l21.1,12.346c0.613,0.358,0.99,1.016,0.99,1.726
		c0,0.71-0.377,1.367-0.99,1.727l-21.1,12.346C23.796,30.406,23.447,30.496,23.101,30.496z"/>
</g>
<path id="path14" fill="#00D455" d="M23.1,28.496L44.2,16.15L23.1,3.804l4.785,8.779H2.182v7.042h25.703L23.1,28.496z"/>
</svg>
